<?xml version="1.0" encoding="utf-8"?>
<!-- Generator: Adobe Illustrator 16.0.0, SVG Export Plug-In . SVG Version: 6.00 Build 0)  -->
<!DOCTYPE svg PUBLIC "-//W3C//DTD SVG 1.1//EN" "http://www.w3.org/Graphics/SVG/1.1/DTD/svg11.dtd">
<svg version="1.1" id="Layer_1" xmlns="http://www.w3.org/2000/svg" xmlns:xlink="http://www.w3.org/1999/xlink" x="0px" y="0px"
	 width="46.583px" height="38.011px" viewBox="0 0 46.583 38.011" enable-background="new 0 0 46.583 38.011" xml:space="preserve">
<g>
	<line fill="#191819" x1="14.696" y1="35.862" x2="12.545" y2="35.862"/>
	<line fill="#191819" x1="35.54" y1="35.862" x2="33.387" y2="35.862"/>
	<path fill="#E7E1D5" d="M34.154,38.007l11.553,0.004c0.583,0,0.876-0.258,0.876-0.773V24.236c0-0.516-0.293-0.773-0.876-0.773
		h-2.686c-0.587,0-0.877-0.258-0.877-0.772l0.002-7.876c0-0.516-0.291-0.773-0.878-0.773H27.317c-0.584,0-0.876,0.257-0.876,0.773
		v21.048h2.146V16.958c0-0.516,0.292-0.772,0.877-0.772h9.661c0.584,0,0.875,0.257,0.875,0.772l-0.002,7.877
		c0,0.516,0.293,0.772,0.877,0.772h2.686c0.587,0,0.879,0.259,0.879,0.772v8.713c0,0.514-0.292,0.769-0.879,0.769H33.382v1.376
		c0,0.516,0.291,0.773,0.877,0.773"/>
	<path fill="#8BAEA1" d="M27.711,38.011c0.585,0,0.879-0.258,0.879-0.773l-0.004-1.376H18.572v1.376c0,0.516,0.29,0.773,0.876,0.773
		H27.711z"/>
	<path fill="#E7E1D5" d="M18.572,35.862h2.151V18.489c0-0.517-0.292-0.773-0.877-0.773H0.877C0.292,17.715,0,17.972,0,18.489v18.749
		c0,0.516,0.292,0.773,0.877,0.773h12.938c0.588,0,0.878-0.258,0.878-0.773l0.003-1.376H3.022c-0.585,0-0.878-0.255-0.878-0.769
		v-14.46c0-0.516,0.293-0.772,0.878-0.772h14.679c0.585,0,0.871,0.256,0.871,0.772V35.862z"/>
	<path fill="#8BAEA1" d="M35.54,35.862V8.271c0-0.296-0.229-0.616-0.509-0.713l-21.977-7.53c-0.28-0.096-0.509,0.069-0.509,0.364
		v35.471h2.151V3.403c0-0.296,0.228-0.459,0.509-0.365l17.673,6.057c0.281,0.094,0.509,0.415,0.509,0.711v26.056H35.54z"/>
</g>
</svg>
