<?xml version="1.0" encoding="utf-8"?>
<!-- Generator: Adobe Illustrator 16.0.0, SVG Export Plug-In . SVG Version: 6.00 Build 0)  -->
<!DOCTYPE svg PUBLIC "-//W3C//DTD SVG 1.1//EN" "http://www.w3.org/Graphics/SVG/1.1/DTD/svg11.dtd">
<svg version="1.1" id="Layer_1" xmlns="http://www.w3.org/2000/svg" xmlns:xlink="http://www.w3.org/1999/xlink" x="0px" y="0px"
	 width="3551.055px" height="372.331px" viewBox="0 0 3551.055 372.331" enable-background="new 0 0 3551.055 372.331"
	 xml:space="preserve">
<g>
	<rect x="685.407" y="149.983" fill="#FFFFFF" width="1147.974" height="56.49"/>
	<polygon fill="#FFFFFF" points="0,6.584 0,67.374 106.385,67.374 106.385,365.754 171.725,365.754 171.725,67.374 278.1,67.374 
		278.1,6.584 	"/>
	<polygon fill="#FFFFFF" points="535.957,6.584 535.957,146.913 388.538,146.913 388.538,6.584 323.193,6.584 323.193,365.754 
		388.538,365.754 388.538,209.225 535.957,209.225 535.957,365.754 601.308,365.754 601.308,6.584 	"/>
	<polygon fill="#FFFFFF" points="685.407,6.584 685.407,365.754 941.22,365.754 941.22,306.472 750.74,306.472 750.74,65.857 
		941.22,65.857 941.22,6.584 	"/>
	<polygon fill="#FFFFFF" points="1605.789,6.584 1605.789,365.754 1671.125,365.754 1671.125,65.857 1853.988,65.857 
		1853.988,6.584 	"/>
	<path fill="#FFFFFF" d="M2109.327,186.426c0-8.1-0.179-16.884-0.52-26.353c-0.332-9.452-1.345-18.812-3.024-28.093
		c-1.693-9.298-4.322-18.159-7.844-26.618c-3.553-8.426-8.361-15.857-14.451-22.278c-7.096-7.767-15.703-13.698-25.831-17.732
		c-10.135-4.066-20.444-6.087-30.915-6.087c-10.463,0-20.755,2.021-30.898,6.087c-10.123,4.034-18.729,9.965-25.824,17.732
		c-6.103,6.42-10.899,13.852-14.443,22.278c-3.545,8.458-6.174,17.32-7.859,26.618c-1.688,9.281-2.697,18.641-3.023,28.093
		c-0.351,9.469-0.514,18.253-0.514,26.353c0,8.109,0.163,16.884,0.514,26.336c0.326,9.461,1.335,18.75,3.023,27.86
		c1.686,9.126,4.314,17.904,7.859,26.344c3.544,8.452,8.341,15.884,14.443,22.297c7.096,7.766,15.701,13.672,25.824,17.723
		c10.144,4.065,20.436,6.096,30.898,6.096c10.471,0,20.78-2.03,30.915-6.096c10.128-4.051,18.735-9.957,25.831-17.723
		c6.09-6.413,10.898-13.845,14.451-22.297c3.521-8.439,6.15-17.218,7.844-26.344c1.68-9.11,2.692-18.399,3.024-27.86
		C2109.148,203.31,2109.327,194.535,2109.327,186.426 M2175.684,186.426c0,14.87-0.498,28.88-1.516,42.047
		c-1.012,13.168-3.202,25.831-6.592,37.998c-3.38,12.149-8.023,23.632-13.938,34.437c-5.908,10.82-13.769,21.112-23.547,30.908
		c-13.859,13.851-29.727,24.058-47.619,30.643c-17.904,6.592-36.476,9.872-55.73,9.872c-19.232,0-37.825-3.28-55.705-9.872
		c-17.919-6.585-33.784-16.792-47.629-30.643c-9.795-9.796-17.656-20.088-23.546-30.908c-5.933-10.805-10.579-22.287-13.938-34.437
		c-3.383-12.167-5.582-24.83-6.585-37.998c-1.018-13.167-1.531-27.178-1.531-42.047c0-14.528,0.514-28.529,1.531-42.055
		c1.003-13.51,3.202-26.346,6.585-38.495c3.359-12.159,8.006-23.631,13.938-34.452c5.89-10.805,13.751-21.099,23.546-30.894
		c13.845-13.852,29.71-24.066,47.629-30.651C1988.917,3.295,2007.51,0,2026.742,0c19.255,0,37.826,3.295,55.73,9.879
		c17.893,6.585,33.76,16.8,47.619,30.651c9.778,9.795,17.639,20.088,23.547,30.894c5.914,10.82,10.558,22.293,13.938,34.452
		c3.39,12.149,5.58,24.985,6.592,38.495C2175.186,157.896,2175.684,171.897,2175.684,186.426"/>
	<polygon fill="#FFFFFF" points="2567.79,6.584 2516.625,256.333 2444.166,12.166 2389.466,12.166 2315.515,256.333 2265.361,6.584 
		2203.046,6.584 2275.505,365.754 2340.855,365.754 2415.811,118.035 2490.801,365.754 2556.145,365.754 2627.562,6.584 	"/>
	<polygon fill="#FFFFFF" points="2678.229,6.584 2678.229,365.754 2910.232,365.754 2910.232,303.953 2743.564,303.953 
		2743.564,6.584 	"/>
	<polygon fill="#FFFFFF" points="2956.836,6.584 2956.836,365.754 3212.654,365.754 3212.654,306.472 3022.182,306.472 
		3022.182,208.207 3189.857,208.207 3189.857,149.455 3022.182,149.455 3022.182,65.857 3212.654,65.857 3212.654,6.584 	"/>
	<path fill="#FFFFFF" d="M3485.71,118.035c0-7.09-1.359-13.932-4.058-20.516c-2.715-6.584-6.6-12.414-11.653-17.468
		c-5.06-5.067-11.325-9.039-18.756-11.924c-7.431-2.854-15.705-4.307-24.815-4.307h-86.122v107.415h87.124
		c18.588,0,32.939-4.57,43.067-13.696C3480.65,148.42,3485.71,135.253,3485.71,118.035 M3480.127,365.746L3420.35,229.99h-79.545
		v135.756h-65.835V6.584h151.458c21.284,0,39.777,3.125,55.482,9.367c15.692,6.25,28.697,14.521,39.006,24.829
		c10.277,10.308,17.887,22.117,22.793,35.462c4.875,13.339,7.346,27.286,7.346,41.792c0,24.308-6.008,45.351-17.988,63.065
		c-11.986,17.733-27.945,30.318-47.876,37.758l65.864,146.888H3480.127z"/>
</g>
</svg>
