<?xml version="1.0" encoding="utf-8"?>
<!-- Generator: Adobe Illustrator 16.0.0, SVG Export Plug-In . SVG Version: 6.00 Build 0)  -->
<!DOCTYPE svg PUBLIC "-//W3C//DTD SVG 1.1//EN" "http://www.w3.org/Graphics/SVG/1.1/DTD/svg11.dtd">
<svg version="1.1" id="Layer_1" xmlns="http://www.w3.org/2000/svg" xmlns:xlink="http://www.w3.org/1999/xlink" x="0px" y="0px"
	 width="5802.941px" height="372.338px" viewBox="0 0 5802.941 372.338" enable-background="new 0 0 5802.941 372.338"
	 xml:space="preserve">
<g>
	<rect x="745.676" y="149.991" fill="#FFFFFF" width="3339.591" height="56.49"/>
	<g>
		<polygon fill="#FFFFFF" points="0,6.591 0,67.381 106.385,67.381 106.385,365.762 171.725,365.762 171.725,67.381 278.1,67.381 
			278.1,6.591 		"/>
		<polygon fill="#FFFFFF" points="535.957,6.591 535.957,146.92 388.538,146.92 388.538,6.591 323.193,6.591 323.193,365.762 
			388.538,365.762 388.538,209.232 535.957,209.232 535.957,365.762 601.308,365.762 601.308,6.591 		"/>
		<polygon fill="#FFFFFF" points="685.407,6.591 685.407,365.762 941.22,365.762 941.22,306.479 750.74,306.479 750.74,65.864 
			941.22,65.864 941.22,6.591 		"/>
		<polygon fill="#FFFFFF" points="3857.676,6.591 3857.676,365.762 3923.012,365.762 3923.012,65.864 4105.875,65.864 
			4105.875,6.591 		"/>
		<path fill="#FFFFFF" d="M4361.214,186.433c0-8.1-0.179-16.884-0.52-26.353c-0.332-9.452-1.345-18.812-3.024-28.093
			c-1.693-9.298-4.322-18.159-7.844-26.618c-3.553-8.426-8.361-15.857-14.451-22.278c-7.096-7.767-15.703-13.698-25.831-17.732
			c-10.135-4.066-20.444-6.087-30.915-6.087c-10.463,0-20.755,2.021-30.898,6.087c-10.123,4.034-18.729,9.965-25.824,17.732
			c-6.103,6.42-10.899,13.852-14.443,22.278c-3.545,8.458-6.174,17.32-7.859,26.618c-1.688,9.281-2.697,18.641-3.023,28.093
			c-0.351,9.469-0.514,18.253-0.514,26.353c0,8.109,0.163,16.884,0.514,26.336c0.326,9.461,1.335,18.75,3.023,27.86
			c1.686,9.126,4.314,17.904,7.859,26.344c3.544,8.452,8.341,15.884,14.443,22.297c7.096,7.766,15.701,13.672,25.824,17.723
			c10.144,4.065,20.436,6.096,30.898,6.096c10.471,0,20.78-2.03,30.915-6.096c10.128-4.051,18.735-9.957,25.831-17.723
			c6.09-6.413,10.898-13.845,14.451-22.297c3.521-8.439,6.15-17.218,7.844-26.344c1.68-9.11,2.692-18.399,3.024-27.86
			C4361.035,203.317,4361.214,194.542,4361.214,186.433 M4427.57,186.433c0,14.87-0.498,28.88-1.516,42.047
			c-1.012,13.168-3.202,25.831-6.592,37.998c-3.38,12.149-8.023,23.632-13.938,34.437c-5.908,10.82-13.769,21.112-23.547,30.908
			c-13.859,13.851-29.727,24.058-47.619,30.643c-17.904,6.592-36.476,9.872-55.73,9.872c-19.232,0-37.825-3.28-55.705-9.872
			c-17.919-6.585-33.784-16.792-47.629-30.643c-9.795-9.796-17.656-20.088-23.546-30.908c-5.933-10.805-10.579-22.287-13.938-34.437
			c-3.383-12.167-5.582-24.83-6.585-37.998c-1.018-13.167-1.531-27.178-1.531-42.047c0-14.528,0.514-28.529,1.531-42.055
			c1.003-13.51,3.202-26.346,6.585-38.495c3.359-12.159,8.006-23.631,13.938-34.452c5.89-10.805,13.751-21.099,23.546-30.894
			c13.845-13.852,29.71-24.066,47.629-30.651c17.88-6.584,36.473-9.879,55.705-9.879c19.255,0,37.826,3.295,55.73,9.879
			c17.893,6.585,33.76,16.8,47.619,30.651c9.778,9.795,17.639,20.088,23.547,30.894c5.914,10.82,10.558,22.293,13.938,34.452
			c3.39,12.149,5.58,24.985,6.592,38.495C4427.072,157.904,4427.57,171.905,4427.57,186.433"/>
		<rect fill="none" width="5802.941" height="372.338"/>
		<polygon fill="#FFFFFF" points="4819.677,6.591 4768.512,256.341 4696.053,12.173 4641.353,12.173 4567.401,256.341 
			4517.248,6.591 4454.933,6.591 4527.392,365.762 4592.742,365.762 4667.697,118.042 4742.688,365.762 4808.031,365.762 
			4879.449,6.591 		"/>
		<polygon fill="#FFFFFF" points="4930.115,6.591 4930.115,365.762 5162.119,365.762 5162.119,303.96 4995.451,303.96 
			4995.451,6.591 		"/>
		<polygon fill="#FFFFFF" points="5208.723,6.591 5208.723,365.762 5464.541,365.762 5464.541,306.479 5274.068,306.479 
			5274.068,208.214 5441.744,208.214 5441.744,149.462 5274.068,149.462 5274.068,65.864 5464.541,65.864 5464.541,6.591 		"/>
		<path fill="#FFFFFF" d="M5737.597,118.042c0-7.09-1.359-13.932-4.058-20.516c-2.715-6.584-6.6-12.414-11.653-17.468
			c-5.06-5.067-11.325-9.039-18.756-11.924c-7.431-2.854-15.705-4.307-24.815-4.307h-86.122v107.415h87.124
			c18.588,0,32.939-4.57,43.067-13.696C5732.537,148.428,5737.597,135.26,5737.597,118.042 M5732.014,365.753l-59.777-135.756
			h-79.545v135.756h-65.835V6.591h151.458c21.284,0,39.777,3.125,55.482,9.367c15.692,6.25,28.697,14.521,39.006,24.829
			c10.277,10.308,17.887,22.117,22.793,35.462c4.875,13.339,7.346,27.286,7.346,41.792c0,24.308-6.008,45.351-17.988,63.065
			c-11.986,17.733-27.945,30.318-47.876,37.758l65.864,146.888H5732.014z"/>
		<rect fill="none" width="5802.941" height="372.338"/>
	</g>
</g>
</svg>
